<?xml version="1.0" encoding="utf-8"?>
<!-- Generator: Adobe Illustrator 16.0.0, SVG Export Plug-In . SVG Version: 6.00 Build 0)  -->
<!DOCTYPE svg PUBLIC "-//W3C//DTD SVG 1.1//EN" "http://www.w3.org/Graphics/SVG/1.1/DTD/svg11.dtd">
<svg version="1.1" id="Layer_1" xmlns="http://www.w3.org/2000/svg" xmlns:xlink="http://www.w3.org/1999/xlink" x="0px" y="0px"
	 width="24px" height="24px" viewBox="0 0 24 24" enable-background="new 0 0 24 24" xml:space="preserve">
<g>
	<path fill-rule="evenodd" clip-rule="evenodd" fill="#474D59" d="M23.531,11.282c0,0.48,0,0.96,0,1.441
		c-0.014,0.058-0.033,0.115-0.037,0.174c-0.118,1.577-0.518,3.081-1.287,4.46c-2.176,3.899-5.504,5.986-9.971,6.163
		c-2.382,0.094-4.59-0.562-6.573-1.891c-2.732-1.832-4.412-4.376-5.015-7.618c-0.08-0.426-0.121-0.859-0.179-1.289
		c0-0.48,0-0.961,0-1.441c0.013-0.066,0.029-0.13,0.038-0.196c0.078-0.525,0.129-1.057,0.236-1.577
		c0.928-4.475,4.741-8.124,9.247-8.859c0.428-0.07,0.859-0.119,1.289-0.178c0.48,0,0.961,0,1.441,0
		c0.058,0.013,0.115,0.027,0.173,0.038c0.723,0.124,1.469,0.17,2.165,0.384c4.555,1.402,7.329,4.448,8.295,9.122
		C23.439,10.432,23.473,10.859,23.531,11.282z M2.083,11.985c-0.019,5.466,4.423,9.92,9.906,9.935
		c5.461,0.013,9.897-4.404,9.928-9.89c0.031-5.462-4.403-9.919-9.895-9.945C6.559,2.06,2.102,6.499,2.083,11.985z"/>
	<path fill-rule="evenodd" clip-rule="evenodd" fill="#474D59" d="M11.746,6.215c0.729,0.004,1.332,0.103,1.899,0.373
		c1.361,0.648,1.823,2.048,1.111,3.376c-0.314,0.587-0.769,1.05-1.279,1.464c-0.129,0.104-0.257,0.208-0.379,0.32
		c-0.356,0.325-0.538,0.732-0.552,1.213c-0.004,0.143-0.001,0.285-0.007,0.428c-0.011,0.292-0.134,0.459-0.407,0.554
		c-0.057,0.02-0.115,0.034-0.174,0.044c-0.838,0.135-1.125-0.105-1.144-0.95c-0.022-1.002,0.329-1.83,1.137-2.448
		c0.244-0.187,0.504-0.365,0.706-0.591c0.194-0.218,0.376-0.475,0.47-0.748c0.174-0.504-0.074-0.959-0.567-1.168
		c-0.813-0.346-1.647-0.108-2.156,0.616c-0.352,0.5-0.91,0.559-1.313,0.131C8.836,8.558,8.82,8.232,8.922,7.901
		c0.216-0.699,0.731-1.114,1.374-1.395C10.791,6.29,11.316,6.215,11.746,6.215z"/>
	<path fill-rule="evenodd" clip-rule="evenodd" fill="#474D59" d="M12.822,16.24c-0.004,0.633-0.533,1.161-1.163,1.161
		c-0.637,0-1.157-0.54-1.149-1.192c0.008-0.64,0.532-1.153,1.169-1.145C12.313,15.073,12.827,15.603,12.822,16.24z"/>
</g>
</svg>
